<?xml version="1.0" standalone="no"?>
<!DOCTYPE svg PUBLIC "-//W3C//DTD SVG 20010904//EN"
 "http://www.w3.org/TR/2001/REC-SVG-20010904/DTD/svg10.dtd">
<svg version="1.0" xmlns="http://www.w3.org/2000/svg"
 width="1024.000000pt" height="1024.000000pt" viewBox="0 0 1024.000000 1024.000000"
 preserveAspectRatio="xMidYMid meet">

<g transform="translate(0.000000,1024.000000) scale(0.100000,-0.100000)"
fill="#000000" stroke="none">
<path d="M0 5120 l0 -5120 5120 0 5120 0 0 5120 0 5120 -5120 0 -5120 0 0
-5120z m5150 4428 c-3 -292 -6 -268 34 -268 51 0 154 -35 213 -72 28 -18 199
-177 380 -352 180 -176 378 -367 438 -425 61 -58 211 -204 335 -326 213 -208
403 -391 884 -850 116 -110 251 -240 301 -290 50 -49 136 -133 190 -185 55
-53 201 -192 325 -311 212 -203 340 -324 490 -464 146 -136 450 -423 518 -488
77 -75 119 -130 152 -202 23 -50 50 -156 50 -197 0 -26 3 -28 45 -28 25 0 45
-4 45 -10 0 -5 -20 -10 -44 -10 l-43 0 -7 -62 c-16 -159 -62 -244 -206 -388
-108 -107 -356 -343 -531 -505 -42 -38 -159 -149 -260 -246 -101 -96 -258
-245 -349 -329 -91 -85 -210 -197 -265 -250 -55 -53 -143 -136 -195 -185 -156
-148 -297 -282 -450 -430 -138 -133 -204 -196 -435 -414 -180 -170 -799 -767
-1060 -1023 -249 -244 -329 -294 -497 -313 l-58 -6 -2 -187 c-2 -119 -7 -186
-13 -184 -6 1 -10 71 -10 184 0 201 2 196 -71 197 -57 2 -168 42 -231 85 -57
37 -182 155 -623 581 -85 83 -200 193 -255 245 -55 52 -163 156 -240 230 -203
196 -366 352 -480 460 -55 52 -152 145 -216 205 -63 61 -149 142 -190 180 -41
39 -162 155 -270 258 -108 103 -200 187 -203 187 -3 0 -6 -162 -6 -360 l0
-360 133 0 133 0 65 63 c76 72 148 131 155 125 2 -2 -35 -46 -82 -96 l-86 -92
141 0 c87 0 141 -4 141 -10 0 -6 -58 -10 -153 -10 l-153 0 -147 -149 -147
-148 0 -627 0 -626 327 2 327 3 -2 675 c-1 371 -5 710 -8 753 -4 50 -3 77 4
77 5 0 13 -8 18 -17 4 -10 6 -350 5 -756 l-3 -737 323 0 324 0 -2 432 c0 238
2 456 6 483 l7 50 7 -81 c5 -45 5 -262 1 -483 l-6 -401 331 0 332 0 -7 115
c-5 77 -4 115 3 115 18 0 23 -28 23 -130 l0 -99 112 -3 c78 -2 113 -7 116 -15
3 -10 -24 -13 -112 -13 l-116 0 0 -56 c0 -45 3 -55 15 -51 18 8 25 -4 29 -46
2 -19 6 -39 10 -45 9 -15 -11 -61 -29 -69 -10 -3 -22 2 -31 15 -8 12 -28 22
-46 24 -17 2 -33 8 -35 14 -2 6 12 31 32 57 30 40 35 53 35 101 l0 56 -329 0
-328 0 0 -50 0 -50 34 0 c49 0 52 -22 9 -84 -20 -29 -36 -58 -36 -64 0 -7 -13
-12 -30 -12 -16 0 -30 3 -30 6 0 3 14 25 30 49 17 24 30 48 30 54 0 6 -13 11
-30 11 -23 0 -30 4 -30 20 0 13 7 20 19 20 13 0 18 6 16 18 -2 9 -4 32 -4 50
l-1 32 -320 0 -320 0 0 -55 c0 -52 1 -55 25 -55 18 0 25 -5 25 -20 0 -11 -5
-20 -11 -20 -5 0 1 -15 15 -33 l26 -34 -23 -21 c-13 -12 -31 -22 -41 -22 -19
0 -96 37 -96 47 0 3 15 24 33 47 30 38 32 45 29 103 l-4 63 -284 1 c-348 1
-342 1 -354 0 -6 -1 -10 -24 -9 -56 2 -51 4 -55 26 -55 36 0 32 -40 -4 -41
-21 -1 -23 -2 -8 -6 33 -8 45 -24 45 -59 0 -28 -5 -36 -27 -45 -36 -13 -69 -4
-88 25 -14 21 -14 28 -1 67 8 23 21 46 28 50 9 5 12 25 10 63 l-4 56 -241 0
c-630 1 -990 0 -993 -3 -1 -1 -5 -45 -8 -97 -5 -95 -20 -137 -21 -57 0 23 -2
62 -3 88 l-2 45 -217 -218 c-120 -120 -221 -218 -225 -218 -26 0 15 48 207
240 118 118 215 218 215 223 0 4 -35 7 -77 7 -42 0 -74 2 -72 4 4 4 104 14
152 15 16 1 17 45 17 776 l0 775 -27 1 c-16 1 -51 2 -80 3 -28 0 -55 4 -59 9
-8 8 19 9 109 7 l57 -1 0 310 0 311 -47 1 c-27 1 -58 0 -70 -1 -12 -1 -30 3
-40 9 -13 8 4 10 70 11 l87 0 0 390 0 390 -87 0 c-61 0 -83 3 -73 10 8 5 48
10 88 10 l72 0 1 163 c1 89 4 191 8 227 6 64 6 63 14 -50 4 -63 7 -166 7 -228
l0 -114 154 5 c141 4 191 -1 174 -18 -4 -4 -79 -6 -167 -6 l-161 2 0 -391 0
-390 452 3 c497 3 730 -3 735 -18 2 -7 -198 -9 -592 -7 l-595 3 0 -309 c0
-287 1 -309 18 -309 58 1 92 -4 92 -13 0 -5 -25 -10 -55 -10 l-55 0 0 -766 0
-766 158 158 159 159 6 58 c8 62 34 137 48 137 5 0 9 -28 9 -63 l0 -63 340
340 c187 188 380 383 430 435 l90 94 0 139 0 138 -222 0 c-123 0 -375 1 -561
1 -234 0 -337 3 -335 11 3 7 177 11 560 11 l555 0 6 351 c3 193 7 358 9 366 2
10 -72 86 -183 190 -377 353 -497 466 -609 574 -64 61 -194 185 -290 275 -317
298 -357 341 -396 426 -24 51 -39 103 -46 160 l-12 85 -47 0 c-26 0 -51 5 -54
10 -4 6 14 10 47 10 l54 0 17 89 c28 148 74 215 286 411 188 174 632 592 776
730 66 63 181 174 255 245 74 72 234 225 355 340 121 116 292 280 380 366 179
174 687 663 840 809 55 52 212 205 350 340 494 485 571 559 655 638 169 159
222 192 337 214 32 6 63 12 69 14 8 2 10 65 6 228 -4 209 -3 226 13 226 15 0
17 -17 15 -192z m4510 104 c0 -5 -101 -110 -225 -233 -222 -221 -225 -225
-225 -266 0 -48 -17 -59 -22 -15 -3 25 -14 16 -170 -138 -164 -162 -167 -166
-162 -201 6 -42 -20 -142 -42 -160 -13 -11 -15 -5 -13 49 1 34 0 64 -2 66 -2
3 -195 -184 -429 -415 l-425 -419 -2 -150 -1 -150 366 0 c1002 -2 882 -4 882
20 0 11 5 20 11 20 6 0 9 -9 6 -20 -4 -18 0 -20 36 -21 23 -1 56 -5 72 -9 23
-6 15 -8 -37 -9 -61 -1 -68 -3 -68 -21 0 -11 -4 -20 -10 -20 -5 0 -10 9 -10
21 l0 20 -617 -5 c-492 -4 -618 -7 -624 -18 -5 -7 -9 -129 -9 -270 l0 -258
626 0 626 0 -3 42 c-2 27 1 43 9 46 9 3 12 -4 11 -19 -6 -65 -3 -69 51 -69 28
0 50 -4 50 -10 0 -5 -22 -10 -50 -10 l-50 0 -1 -102 c-2 -147 -3 -165 -11
-174 -5 -4 -8 4 -9 17 0 13 -2 71 -4 129 -1 58 -3 111 -4 118 -1 9 -132 12
-621 12 l-620 0 0 -51 c0 -31 -4 -48 -10 -44 -5 3 -10 26 -10 51 l0 44 -37 0
c-21 0 -45 5 -53 10 -17 11 -11 12 48 10 l42 -2 -2 273 -3 273 -150 -3 -150
-2 -88 -90 c-49 -49 -93 -89 -98 -89 -22 0 -4 26 66 97 41 42 75 80 75 83 0 4
-15 6 -32 4 -117 -8 -271 -5 -281 6 -9 10 -9 14 0 17 9 3 13 137 14 556 3 776
3 784 12 793 4 4 7 -297 7 -669 l0 -677 158 0 157 0 158 157 157 158 0 190 c1
551 5 887 12 891 8 5 10 -86 10 -695 l0 -364 145 144 c376 372 707 709 693
705 -8 -3 -41 -8 -72 -12 -115 -13 -44 40 76 57 59 8 59 8 180 129 67 67 126
124 131 128 6 4 30 29 55 55 41 44 43 48 26 60 -18 13 -18 14 3 20 13 3 19 10
15 20 -3 8 0 18 7 22 8 6 10 -1 7 -24 -3 -17 -1 -30 3 -29 4 2 105 99 224 216
119 116 218 212 220 212 3 0 5 -4 5 -8z m-450 -112 c0 -33 -4 -60 -9 -60 -4 0
-9 27 -10 60 -1 34 3 60 9 60 6 0 10 -26 10 -60z m0 -115 c0 -58 -14 -58 -18
0 -1 25 2 45 8 45 5 0 10 -20 10 -45z m-3 -87 c-3 -7 -5 -2 -5 12 0 14 2 19 5
13 2 -7 2 -19 0 -25z m-4487 -98 c0 -10 -121 -15 -257 -10 -121 4 -113 17
-113 -190 0 -108 -4 -181 -10 -185 -5 -3 -10 2 -10 12 -1 10 -1 95 -2 189 l-2
171 -255 2 c-141 1 -365 2 -498 2 -134 0 -243 3 -243 8 0 4 116 8 257 9 141 1
258 3 259 5 8 8 874 -5 874 -13z m-1915 0 c6 -10 -129 -12 -625 -11 -107 0
-375 1 -595 2 -235 0 -392 4 -380 9 28 12 1593 12 1600 0z m35 0 c0 -5 -4 -10
-10 -10 -5 0 -10 5 -10 10 0 6 5 10 10 10 6 0 10 -4 10 -10z m70 0 c0 -5 -4
-10 -10 -10 -5 0 -10 5 -10 10 0 6 5 10 10 10 6 0 10 -4 10 -10z m80 6 c0 -3
-4 -8 -10 -11 -5 -3 -10 -1 -10 4 0 6 5 11 10 11 6 0 10 -2 10 -4z m155 -6 c3
-5 -1 -10 -9 -10 -9 0 -16 5 -16 10 0 6 4 10 9 10 6 0 13 -4 16 -10z m35 0 c0
-5 -4 -10 -10 -10 -5 0 -10 5 -10 10 0 6 5 10 10 10 6 0 10 -4 10 -10z m55 0
c-26 -11 -35 -12 -35 -2 0 4 12 8 28 9 23 1 24 1 7 -7z m80 0 c4 -6 -5 -10
-20 -10 -15 0 -24 4 -20 10 3 6 12 10 20 10 8 0 17 -4 20 -10z m4045 0 c0 -6
-271 -10 -674 -10 -371 0 -689 -3 -706 -7 l-31 -6 1 -101 c3 -184 0 -256 -10
-256 -6 0 -10 68 -10 184 l0 183 -177 -1 c-125 -1 -181 3 -192 11 -13 10 172
12 892 12 545 0 907 -4 907 -9z m1130 0 c0 -5 -229 -9 -560 -10 -371 0 -560 3
-560 10 0 7 189 10 560 10 331 -1 560 -4 560 -10z m126 3 c-11 -11 -65 -12
-72 -2 -3 5 14 9 37 9 23 0 39 -3 35 -7z m114 -3 c0 -13 -89 -10 -96 2 -3 4
18 8 45 8 29 0 51 -5 51 -10z m150 -2 c0 -4 -29 -8 -65 -8 -38 0 -65 4 -65 10
0 7 25 10 65 8 36 -1 65 -6 65 -10z m45 2 c-3 -5 -10 -10 -16 -10 -5 0 -9 5
-9 10 0 6 7 10 16 10 8 0 12 -4 9 -10z m35 0 c0 -5 -4 -10 -10 -10 -5 0 -10 5
-10 10 0 6 5 10 10 10 6 0 10 -4 10 -10z m30 6 c0 -3 -4 -8 -10 -11 -5 -3 -10
-1 -10 4 0 6 5 11 10 11 6 0 10 -2 10 -4z m30 -6 c0 -5 -4 -10 -10 -10 -5 0
-10 5 -10 10 0 6 5 10 10 10 6 0 10 -4 10 -10z m40 0 c0 -5 -4 -10 -9 -10 -6
0 -13 5 -16 10 -3 6 1 10 9 10 9 0 16 -4 16 -10z m90 0 c0 -5 -18 -10 -40 -10
-22 0 -40 5 -40 10 0 6 18 10 40 10 22 0 40 -4 40 -10z m-8072 -955 c2 -363 5
-661 6 -663 2 -2 119 -3 260 -3 141 0 418 1 616 1 l360 0 0 153 0 153 -382
374 c-211 206 -402 394 -426 418 -24 23 -46 42 -48 42 -3 0 -1 -30 2 -67 6
-52 4 -64 -5 -58 -21 12 -40 69 -46 137 -5 45 -12 68 -26 80 -10 9 -19 20 -19
25 0 4 -36 44 -80 87 -44 43 -78 81 -76 84 5 4 78 -61 163 -145 46 -46 58 -53
92 -53 45 0 131 -33 131 -51 0 -6 -6 -9 -14 -6 -29 11 -106 19 -106 11 0 -9
833 -834 837 -830 2 1 3 222 4 492 1 269 5 509 9 534 l7 45 2 -40 c1 -22 1
-272 1 -555 l0 -515 162 -157 163 -158 163 0 162 0 1 538 c1 295 2 579 2 630
0 50 4 92 8 92 5 0 9 -21 9 -47 -1 -119 11 -1217 13 -1226 1 -6 -56 -11 -153
-14 -85 -2 -156 -6 -158 -7 -2 -2 29 -35 67 -73 62 -61 88 -103 63 -103 -4 0
-48 40 -97 90 l-89 89 -153 3 c-97 2 -153 -1 -153 -7 0 -5 -3 -128 -7 -272
l-6 -263 52 0 c32 0 50 -4 46 -10 -3 -5 -24 -10 -45 -10 l-38 0 -8 -77 c-8
-86 -21 -72 -23 25 l-1 52 -614 0 c-357 0 -617 -4 -620 -9 -8 -12 -8 -712 0
-720 3 -3 131 -6 285 -6 188 1 278 -3 276 -10 -2 -6 -100 -10 -281 -11 -152
-1 -279 -3 -281 -5 -2 -2 -4 -119 -6 -259 -3 -261 -5 -290 -20 -290 -5 0 -10
125 -11 277 l-3 277 -75 4 c-106 4 -110 10 -9 11 l87 1 1 370 1 370 -80 0
c-46 0 -80 4 -80 10 0 5 8 9 18 8 9 -1 45 0 80 0 l62 2 0 275 0 275 -77 1
c-68 1 -73 2 -38 9 22 5 57 7 78 6 l37 -1 1 645 c1 852 1 834 8 845 12 20 17
-171 19 -820z m8132 794 c0 -11 -4 -17 -10 -14 -5 3 -10 13 -10 21 0 8 5 14
10 14 6 0 10 -9 10 -21z m-1270 1 c0 -5 -2 -10 -4 -10 -3 0 -8 5 -11 10 -3 6
-1 10 4 10 6 0 11 -4 11 -10z m1270 -75 c0 -25 -4 -45 -10 -45 -5 0 -10 20
-10 45 0 25 5 45 10 45 6 0 10 -20 10 -45z m-6200 -31 c0 -36 -3 -63 -7 -61
-10 7 -8 127 2 127 3 0 5 -30 5 -66z m3617 46 c1 -11 -2 -20 -8 -20 -5 0 -9 9
-9 20 0 11 4 20 8 20 4 0 8 -9 9 -20z m-2954 -381 c2 -211 1 -420 -2 -464 l-7
-80 -7 105 c-8 107 -7 766 1 808 3 13 6 21 8 19 2 -2 5 -176 7 -388z m3611
356 c3 -8 1 -15 -4 -15 -6 0 -10 7 -10 15 0 8 2 15 4 15 2 0 6 -7 10 -15z
m-655 -382 c0 -208 -4 -414 -7 -458 -10 -160 -18 -36 -16 283 2 465 5 552 15
552 6 0 9 -151 8 -377z m2578 152 c0 -141 -3 -185 -13 -185 -8 0 -11 12 -8 38
5 49 5 237 0 282 -3 37 0 50 14 50 4 0 8 -83 7 -185z m1 -440 c0 -148 -4 -245
-10 -243 -15 5 -16 488 -1 488 9 0 12 -63 11 -245z m-1 -275 c1 -11 -2 -22 -8
-25 -5 -3 -6 1 -3 9 3 9 1 16 -5 16 -6 0 -11 5 -11 10 0 19 26 10 27 -10z m3
-60 c0 -5 -4 -10 -10 -10 -5 0 -10 5 -10 10 0 6 5 10 10 10 6 0 10 -4 10 -10z
m-3 -80 c1 -27 -2 -50 -7 -50 -12 0 -20 39 -9 46 5 3 6 16 3 30 -3 13 -2 24 3
24 5 0 10 -22 10 -50z m-1 -105 c-1 -19 -5 -34 -10 -32 -13 4 -13 67 0 67 6 0
10 -16 10 -35z m-4 -77 c-9 -9 -12 -7 -12 12 0 19 3 21 12 12 9 -9 9 -15 0
-24z m8 -198 c0 -5 -4 -10 -10 -10 -5 0 -10 5 -10 10 0 6 5 10 10 10 6 0 10
-4 10 -10z m-5 -149 c3 -5 1 -12 -5 -16 -5 -3 -10 1 -10 9 0 18 6 21 15 7z m3
-53 c0 -13 -3 -36 -6 -53 l-6 -30 -6 30 c-7 35 -1 75 11 75 4 0 8 -10 7 -22z
m-1 -158 c2 -11 -2 -20 -7 -20 -6 0 -10 12 -10 27 0 29 12 24 17 -7z m-10
-472 c-3 -8 -6 -5 -6 6 -1 11 2 17 5 13 3 -3 4 -12 1 -19z m13 -149 c0 -5 -4
-9 -10 -9 -5 0 -10 7 -10 16 0 8 5 12 10 9 6 -3 10 -10 10 -16z m-3 -169 c1
-38 -1 -70 -6 -70 -10 0 -14 96 -5 123 3 9 6 17 7 17 1 0 3 -31 4 -70z m-111
-92 c9 -10 4 -10 -211 -13 -99 -1 -200 0 -225 3 l-45 6 40 6 c61 8 432 6 441
-2z m54 -9 c0 -4 -7 -6 -15 -3 -8 4 -15 10 -15 15 0 4 7 6 15 3 8 -4 15 -10
15 -15z m90 5 c0 -8 -8 -14 -17 -14 -17 0 -18 -19 -15 -275 2 -190 0 -275 -7
-275 -13 0 -12 -6 -16 193 -2 102 1 157 7 157 7 0 7 4 1 13 -6 6 -10 52 -9
100 1 49 -3 91 -8 94 -12 8 12 21 40 21 14 0 24 -6 24 -14z m40 -4 c0 -5 -4
-10 -10 -10 -5 0 -10 5 -10 10 0 6 5 10 10 10 6 0 10 -4 10 -10z m795 -1201
c0 -8 -6 -14 -12 -13 -7 1 -119 2 -248 3 -137 0 -235 5 -235 10 0 15 30 17
270 15 182 -1 225 -4 225 -15z m-9402 -2 c1 -5 -95 -9 -213 -8 -297 0 -290 0
-290 11 0 13 499 9 503 -3z m8524 -569 c-3 -8 -6 -5 -6 6 -1 11 2 17 5 13 3
-3 4 -12 1 -19z m12 -268 c-1 -83 1 -153 4 -156 3 -4 33 -6 67 -6 33 0 60 -4
60 -9 0 -5 -29 -9 -65 -9 -36 0 -65 -4 -66 -10 0 -5 -1 -44 -1 -85 0 -41 1
-212 1 -380 l1 -305 88 -1 c73 -1 81 -3 47 -10 -22 -4 -61 -8 -87 -8 l-47 -1
-3 -300 c-2 -165 -1 -305 0 -310 2 -6 10 -10 18 -10 8 0 14 -4 14 -10 0 -5 -7
-10 -15 -10 -8 0 -15 -7 -15 -15 0 -20 -17 -19 -28 1 -7 13 -26 16 -90 15 -48
0 -82 3 -82 9 0 6 37 10 91 10 l91 0 -3 293 c-1 160 -4 300 -7 310 -4 16 -41
17 -600 17 -371 0 -592 4 -586 9 5 6 252 12 593 16 322 3 587 8 590 11 6 6 14
644 8 724 l-2 35 -163 3 c-103 1 -161 6 -157 12 4 6 73 10 165 10 l159 0 -3
138 c-3 121 3 172 20 172 3 0 4 -68 3 -150z m161 -170 c0 -5 -4 -10 -10 -10
-5 0 -10 5 -10 10 0 6 5 10 10 10 6 0 10 -4 10 -10z m-1430 -1144 l0 -286 530
0 c347 0 530 -3 530 -10 0 -7 -182 -10 -525 -10 l-525 0 -1 -32 c-1 -18 -2
-80 -3 -138 l-1 -105 45 -49 c54 -60 91 -98 424 -439 142 -146 262 -269 265
-274 3 -5 35 -35 70 -68 l63 -60 -7 75 c-6 67 -5 73 9 60 16 -16 46 -118 46
-159 0 -17 24 -49 79 -105 145 -148 191 -199 191 -208 0 -5 -61 52 -136 125
l-135 134 -65 6 c-59 6 -154 38 -154 52 0 3 35 3 77 -1 l78 -7 -65 73 c-36 41
-228 238 -427 439 l-361 366 -2 -618 -1 -617 263 -1 c744 -1 865 -3 883 -10
30 -11 -1 -12 -600 -14 l-540 -1 3 -31 c4 -45 -15 -50 -23 -6 l-6 38 -312 0
-312 0 -5 -45 -5 -45 -8 34 c-4 18 -4 37 -1 42 3 5 -131 9 -320 9 l-326 0 0
-54 c0 -32 5 -56 12 -58 8 -3 8 -9 1 -23 -8 -14 -6 -25 9 -45 26 -36 20 -72
-13 -84 -37 -13 -74 -1 -87 28 -15 34 14 126 40 126 15 0 18 9 18 55 l0 54
-307 3 c-170 2 -318 2 -330 0 -20 -3 -23 -9 -23 -52 0 -39 4 -49 19 -53 14 -3
18 -11 14 -26 -3 -12 -12 -21 -19 -21 -20 0 -17 -13 7 -28 50 -32 -8 -108 -67
-87 -43 15 -42 35 1 35 43 0 44 23 2 28 -24 3 -27 7 -27 43 0 21 0 42 0 47 0
4 11 8 25 10 23 3 25 7 25 51 0 45 -2 49 -27 54 -16 3 -70 3 -120 0 -82 -5
-93 -4 -93 11 0 14 16 16 120 16 l119 0 3 107 c2 59 7 108 13 110 6 2 9 -37 7
-107 l-4 -110 332 0 332 0 -7 413 c-4 227 -4 427 0 445 19 88 25 -11 25 -419
l0 -439 325 0 c253 0 325 3 326 13 0 9 2 9 6 0 4 -10 77 -13 318 -13 310 0
313 0 318 21 3 12 4 105 3 208 -2 102 -4 376 -5 608 l-1 421 -145 147 -145
146 -138 -1 c-164 -2 -159 -3 -146 10 5 5 66 10 135 11 l126 0 -64 64 c-34 35
-63 66 -63 69 0 17 24 -1 91 -66 l74 -73 135 3 135 3 3 272 c2 251 6 316 18
304 3 -3 5 -133 4 -291z m1410 -292 c-38 -8 -90 -9 -90 -2 0 4 24 7 53 7 28
-1 45 -3 37 -5z m-2061 -704 c-1 -355 -5 -629 -8 -610 -7 34 -9 217 -11 910
-1 409 -2 378 10 360 6 -9 9 -258 9 -660z m1913 593 l-10 -38 -1 50 c-1 36 2
46 10 38 8 -8 8 -22 1 -50z m7 -588 c0 -299 -3 -547 -8 -549 -9 -6 -13 120
-12 409 0 99 1 294 1 433 0 148 4 252 9 252 6 0 10 -217 10 -545z m-2592 123
c-3 -8 -6 -5 -6 6 -1 11 2 17 5 13 3 -3 4 -12 1 -19z m-2950 -10 c-3 -8 -6 -5
-6 6 -1 11 2 17 5 13 3 -3 4 -12 1 -19z m2950 -55 c-3 -10 -5 -4 -5 12 0 17 2
24 5 18 2 -7 2 -21 0 -30z m233 -463 c0 -5 -5 -10 -11 -10 -5 0 -7 5 -4 10 3
6 8 10 11 10 2 0 4 -4 4 -10z m440 -420 c0 -5 -2 -10 -4 -10 -3 0 -8 5 -11 10
-3 6 -1 10 4 10 6 0 11 -4 11 -10z m1834 -56 c3 -8 2 -12 -4 -9 -6 3 -10 10
-10 16 0 14 7 11 14 -7z m89 -11 c5 -8 24 -28 43 -45 19 -17 32 -33 29 -36 -2
-3 -27 16 -54 41 -29 28 -60 47 -73 47 -19 0 -20 2 -8 10 18 12 52 3 63 -17z
m227 -218 c99 -99 122 -127 112 -137 -9 -9 -12 -9 -12 4 0 9 -54 68 -120 131
-66 64 -120 119 -120 122 0 16 26 -7 140 -120z m-2130 64 c0 -26 5 -42 15 -45
20 -8 19 -14 -9 -47 -23 -29 -56 -29 -56 -1 0 9 -12 14 -34 14 -19 0 -38 5
-41 10 -9 15 94 120 111 113 9 -3 14 -20 14 -44z m648 45 c30 -9 28 -34 -3
-34 -35 0 -31 -16 5 -23 34 -7 48 -43 30 -76 -8 -16 -20 -21 -55 -21 -57 0
-67 17 -59 99 6 57 8 61 33 61 14 0 36 -3 49 -6z m1662 -289 c24 -24 40 -48
36 -52 -7 -7 -95 75 -96 90 -1 16 18 5 60 -38z"/>
<path d="M5040 9216 c-123 -35 -136 -46 -714 -610 -186 -182 -342 -334 -347
-337 -5 -3 -89 -84 -187 -180 -97 -96 -251 -245 -342 -333 -91 -87 -244 -236
-340 -330 -96 -94 -229 -223 -295 -286 -66 -63 -181 -173 -255 -244 -74 -72
-178 -171 -230 -221 -85 -81 -370 -352 -885 -840 -93 -89 -201 -190 -240 -224
-38 -35 -114 -107 -168 -160 -115 -113 -163 -195 -173 -298 -7 -61 -6 -63 17
-64 l24 -1 -25 -7 c-22 -6 -24 -11 -21 -50 4 -67 29 -149 63 -213 23 -43 66
-91 167 -185 75 -70 183 -173 240 -228 57 -55 109 -104 115 -110 28 -24 300
-278 386 -360 297 -283 694 -659 829 -785 74 -69 200 -188 280 -266 81 -77
229 -218 331 -314 102 -96 273 -260 381 -364 107 -105 256 -247 330 -316 74
-69 235 -224 359 -345 477 -466 535 -515 655 -550 28 -8 68 -15 89 -17 l40 -3
-2 145 c-1 80 -2 159 -2 176 0 30 -2 31 -52 37 -134 14 -227 69 -405 240 -76
72 -215 204 -308 292 -93 88 -332 318 -530 510 -198 193 -414 402 -480 465
-397 381 -566 541 -695 661 -126 117 -235 219 -615 579 -123 116 -529 504
-638 610 -54 52 -111 116 -128 141 -35 56 -66 138 -71 194 -4 38 -6 40 -43 46
-21 4 -72 4 -112 2 -47 -3 -73 -1 -73 6 0 6 42 11 113 13 l112 3 7 65 c13 119
55 184 225 350 81 80 186 181 233 224 47 44 159 150 250 236 91 87 219 204
285 260 106 91 226 205 454 430 36 36 233 225 436 420 376 360 568 546 980
950 748 731 759 741 836 778 36 17 101 37 144 44 l80 14 0 179 c0 204 4 196
-85 171z m-4080 -4136 c0 -5 -4 -10 -10 -10 -5 0 -10 5 -10 10 0 6 5 10 10 10
6 0 10 -4 10 -10z"/>
<path d="M5145 9221 c-4 -7 -5 -90 -3 -185 l3 -173 74 -12 c90 -14 178 -55
251 -117 49 -41 282 -266 850 -819 96 -94 240 -233 320 -310 80 -77 208 -200
285 -275 77 -74 192 -184 256 -245 63 -60 220 -211 349 -335 129 -124 321
-307 425 -405 634 -598 917 -867 968 -920 84 -86 127 -180 139 -305 3 -24 5
-25 96 -28 122 -4 120 -22 -3 -22 l-95 0 0 -42 c0 -50 -19 -118 -50 -179 -27
-53 -173 -199 -585 -584 -170 -160 -365 -344 -435 -411 -69 -66 -179 -172
-245 -235 -66 -63 -172 -163 -235 -224 -107 -102 -333 -317 -590 -560 -96 -91
-367 -350 -690 -660 -68 -66 -201 -195 -295 -286 -187 -183 -319 -307 -410
-390 -110 -99 -213 -153 -319 -165 -38 -5 -55 -11 -58 -23 -3 -14 -3 -190 1
-299 l1 -42 43 6 c110 16 187 48 270 115 45 36 435 411 882 849 94 92 247 238
340 325 94 87 220 206 280 264 61 58 237 225 390 371 154 146 345 328 425 406
138 134 427 406 575 543 39 36 142 132 230 215 88 83 187 176 220 206 79 73
318 303 426 410 114 113 169 224 169 342 l0 48 -70 0 c-40 0 -70 4 -70 10 0 6
30 10 70 10 l70 0 0 38 c0 77 -45 187 -109 270 -14 18 -143 142 -286 275 -240
224 -568 534 -810 767 -55 53 -260 248 -455 435 -195 186 -416 398 -490 470
-74 72 -184 178 -245 236 -120 114 -311 298 -590 569 -99 96 -252 245 -340
330 -88 85 -266 258 -395 385 -264 260 -303 294 -382 330 -65 30 -142 43 -153
26z"/>
<path d="M5058 8606 c-74 -20 -130 -68 -553 -485 -241 -237 -840 -820 -1055
-1027 -85 -82 -258 -251 -385 -375 -275 -270 -426 -413 -520 -494 l-70 -60
-56 9 c-91 14 -138 2 -238 -64 -78 -51 -91 -64 -106 -105 l-18 -46 44 -45 44
-45 -85 -81 c-47 -45 -121 -115 -165 -156 -345 -326 -412 -399 -429 -467 -31
-122 0 -212 110 -314 241 -226 646 -614 697 -669 45 -48 59 -45 50 10 -5 32
-29 60 -177 200 -265 252 -344 327 -436 413 -166 157 -182 183 -182 288 1 89
33 135 224 318 323 310 408 389 418 389 6 0 10 -26 10 -57 l0 -57 -108 -106
c-59 -58 -171 -166 -250 -239 -78 -74 -152 -147 -164 -163 -32 -45 -34 -123
-6 -169 13 -20 107 -113 209 -208 l187 -171 6 -54 c6 -41 15 -63 42 -94 35
-42 65 -56 144 -67 42 -7 58 -19 215 -174 94 -92 244 -236 335 -320 91 -85
282 -267 425 -404 411 -396 472 -455 609 -582 71 -66 186 -174 255 -241 69
-66 166 -158 216 -205 49 -46 186 -178 305 -294 400 -390 445 -433 477 -449
41 -20 50 -20 56 2 4 16 5 16 6 0 1 -24 29 -22 73 5 38 23 242 213 517 482 90
88 172 167 181 175 9 8 66 62 126 120 60 58 177 170 259 249 83 80 202 194
265 256 63 61 171 164 240 230 69 66 255 246 415 400 159 154 337 325 395 380
58 55 166 159 240 230 74 72 162 155 195 184 33 30 137 127 230 216 94 89 204
193 246 231 71 64 119 126 119 153 0 6 -10 16 -22 21 -22 8 -22 9 -3 9 18 1
20 6 17 39 -4 32 -18 50 -110 137 -236 222 -400 388 -404 409 -6 32 3 106 13
106 12 0 526 -505 562 -552 15 -20 33 -59 40 -87 11 -49 13 -51 46 -51 l34 0
-7 41 c-4 22 -16 60 -28 82 -13 27 -180 201 -467 487 -360 359 -455 448 -489
460 -31 11 -82 54 -190 160 -81 80 -192 188 -247 240 -55 52 -170 162 -255
245 -86 82 -277 267 -425 410 -430 414 -533 514 -830 805 -369 362 -566 545
-614 570 -22 10 -58 22 -81 26 l-41 7 3 -34 c3 -32 6 -34 45 -40 57 -7 87 -31
275 -210 259 -249 308 -296 700 -679 205 -200 422 -412 483 -470 60 -58 179
-173 265 -256 85 -83 263 -254 395 -380 132 -126 276 -264 320 -306 l80 -78
-78 0 -77 0 -43 43 c-44 44 -112 109 -517 497 -135 129 -337 325 -450 435
-318 310 -512 499 -670 651 -79 76 -230 223 -335 325 -104 102 -222 215 -262
251 -69 63 -118 88 -126 64 -3 -8 -8 -8 -18 0 -37 30 -76 -3 -546 -465 -433
-425 -628 -616 -738 -720 -60 -58 -195 -188 -300 -291 -104 -102 -333 -324
-508 -493 l-319 -307 -76 0 c-64 0 -74 2 -62 13 60 55 285 270 430 411 97 94
310 301 475 461 165 159 365 352 444 430 80 77 150 145 156 150 7 6 189 183
406 395 535 523 522 513 604 530 25 5 30 11 30 35 0 35 -7 37 -67 21z m110
-484 c23 -66 99 -128 172 -144 32 -6 57 -15 55 -19 -3 -3 -24 -9 -47 -13 -93
-15 -179 -95 -193 -179 -8 -47 -24 -84 -25 -56 0 41 -33 119 -64 156 -39 45
-84 70 -149 82 -43 8 -42 10 32 32 91 28 149 93 173 197 l13 54 9 -34 c4 -18
15 -52 24 -76z m-497 -477 c29 -21 50 -47 67 -84 23 -49 24 -62 19 -150 -6
-106 -30 -208 -112 -482 -64 -213 -71 -248 -56 -278 14 -26 37 -27 78 -1 42
25 85 102 118 209 15 47 53 169 85 271 32 102 71 230 86 285 14 55 31 103 36
106 17 11 178 42 185 36 5 -6 -160 -499 -227 -677 -70 -186 -60 -285 22 -220
20 15 26 31 31 79 9 103 77 197 172 237 47 19 70 18 100 -8 34 -30 44 -88 21
-123 -29 -44 -81 -21 -56 25 26 49 -15 56 -54 10 -23 -28 -56 -114 -56 -147 0
-18 30 -76 44 -85 23 -15 71 -7 108 18 45 31 45 31 53 162 18 272 136 567 250
622 40 20 49 21 77 9 64 -26 73 -123 23 -269 -44 -129 -94 -217 -178 -309 -47
-53 -49 -56 -42 -99 15 -98 35 -116 89 -83 28 18 35 29 40 69 23 166 165 306
270 266 9 -3 16 -12 16 -20 0 -19 10 -18 34 5 15 13 42 21 90 25 62 5 67 4 60
-12 -4 -9 -22 -69 -41 -132 -40 -134 -41 -193 -6 -198 13 -2 36 6 52 17 16 12
32 21 35 21 10 0 -34 -83 -58 -108 -25 -28 -87 -62 -113 -62 -25 0 -61 27 -82
61 l-17 28 -39 -41 c-72 -75 -141 -83 -177 -21 l-20 33 -38 -34 c-43 -39 -91
-66 -115 -66 -30 0 -71 29 -90 63 l-18 34 -29 -33 c-37 -41 -121 -84 -167 -84
-39 0 -98 31 -107 55 -9 22 -18 19 -85 -30 -89 -66 -152 -57 -195 27 l-16 31
-51 -51 c-59 -58 -89 -72 -155 -72 -83 0 -123 49 -124 153 -1 48 19 136 91
397 74 269 92 350 94 412 3 98 -18 131 -81 136 -35 3 -46 -1 -67 -24 -33 -36
-41 -84 -21 -125 14 -29 15 -35 2 -47 -21 -21 -63 -7 -81 28 -44 84 14 211
120 262 61 29 150 21 206 -17z m-310 -574 l48 -27 -40 -18 c-27 -12 -46 -29
-56 -52 -18 -36 -33 -45 -33 -18 0 23 -55 71 -91 79 l-30 7 51 25 c32 16 57
37 67 57 l16 31 10 -28 c6 -18 26 -38 58 -56z m2062 -175 c11 -15 36 -35 56
-44 l36 -15 -30 -10 c-42 -14 -55 -26 -75 -72 -15 -34 -19 -37 -25 -20 -19 56
-28 67 -66 84 l-41 19 39 18 c23 12 46 33 58 56 11 21 22 32 24 25 2 -6 13
-25 24 -41z m-2348 -141 l40 -20 -40 -20 c-26 -13 -47 -34 -60 -60 l-21 -40
-18 38 c-19 40 -66 76 -101 78 -12 0 2 10 33 24 44 20 56 31 69 64 l16 40 21
-42 c14 -29 34 -48 61 -62z m-482 -243 c38 -59 85 -90 163 -109 l69 -17 -40
-7 c-120 -21 -194 -87 -225 -201 l-16 -60 -19 68 c-15 56 -27 77 -64 114 -48
47 -121 80 -176 80 -23 0 -27 3 -15 10 8 5 28 10 43 10 93 0 193 97 212 205
12 63 18 63 30 3 6 -31 23 -74 38 -96z m3152 91 c10 -55 39 -106 81 -142 40
-36 65 -48 139 -67 33 -8 41 -13 24 -13 -50 -2 -130 -32 -166 -64 -40 -35 -83
-117 -83 -159 0 -47 -17 -40 -24 10 -10 71 -64 144 -132 176 -30 14 -73 29
-96 32 l-42 7 59 17 c73 20 113 40 141 72 27 29 59 93 69 136 9 43 21 41 30
-5z m-4076 -609 c195 -8 360 -18 366 -22 6 -4 52 -51 104 -105 78 -83 92 -102
85 -120 -4 -12 -9 -98 -11 -192 l-4 -170 -46 -41 -47 -40 40 -30 c21 -16 42
-33 46 -39 4 -5 8 -96 8 -201 0 -112 5 -204 11 -222 9 -27 8 -36 -11 -59 -36
-48 -163 -172 -179 -178 -29 -8 -740 -66 -779 -63 -23 2 -38 9 -40 18 -1 8 31
56 73 105 l75 90 1 255 c1 140 1 262 0 270 -1 8 -24 35 -52 60 l-50 46 50 43
51 42 0 165 c0 185 2 177 -91 326 -27 43 -49 79 -49 81 0 2 21 2 48 0 26 -2
206 -10 401 -19z m5211 -60 l88 -85 4 -97 c3 -53 4 -98 4 -99 -1 0 -44 -6 -96
-12 -80 -10 -174 -35 -242 -65 -16 -7 -18 -2 -18 41 l0 49 -62 -4 c-35 -2 -69
-5 -75 -7 -15 -5 -18 -190 -4 -200 5 -3 60 -12 121 -20 147 -19 276 -50 325
-78 l40 -23 3 -329 2 -329 -32 -34 c-18 -18 -59 -57 -91 -85 -58 -50 -59 -50
-120 -48 -79 2 -404 49 -426 61 -17 9 -152 162 -184 210 -12 17 -17 45 -17 92
0 36 -4 78 -10 92 -12 31 -18 31 124 10 60 -9 142 -14 183 -12 l73 3 0 -33 c0
-38 19 -49 96 -53 l49 -3 3 111 c3 130 26 112 -183 142 -77 12 -184 29 -239
38 l-98 17 4 290 c3 196 8 298 16 312 6 12 56 62 110 112 l100 90 73 7 c116
12 248 22 323 23 l69 2 87 -86z m-3676 -94 l96 -101 0 -227 0 -227 -33 -23
c-17 -12 -54 -42 -82 -66 l-50 -44 105 -158 c58 -87 131 -191 163 -232 32 -41
56 -76 54 -79 -3 -3 -95 -7 -204 -10 l-198 -5 -25 44 c-14 24 -68 116 -120
205 -122 209 -130 211 -130 36 0 -121 2 -132 32 -206 24 -58 29 -80 20 -86 -7
-4 -105 -15 -220 -25 -114 -9 -226 -20 -249 -23 -49 -6 -56 6 -24 41 10 12 44
64 75 116 l56 95 -2 200 -3 199 -41 31 c-23 16 -49 35 -58 40 -15 9 -9 17 43
60 l61 50 0 123 0 123 -47 82 c-25 45 -57 99 -70 119 -12 21 -23 40 -23 43 0
3 175 5 389 5 l389 0 96 -100z m626 -365 l0 -465 25 -12 c19 -8 28 -8 40 2 14
12 16 66 14 474 l-1 461 177 3 c166 2 177 1 170 -15 -4 -10 -20 -53 -36 -96
l-29 -78 0 -447 0 -448 -57 -55 c-32 -31 -78 -72 -102 -92 l-45 -37 -117 0
-118 0 -58 46 c-32 26 -79 67 -105 92 l-48 46 0 433 c0 483 2 469 -75 589 -19
30 -35 57 -35 59 0 3 90 5 200 5 l200 0 0 -465z m1030 457 c0 -4 -4 -12 -9
-17 -5 -6 -32 -56 -60 -112 l-51 -102 0 -395 0 -395 49 -113 49 -113 -265 -3
c-146 -1 -268 -1 -270 2 -2 2 24 50 59 107 l63 104 -3 420 -3 420 -47 95 c-26
52 -48 98 -50 102 -2 4 118 8 267 8 149 0 271 -4 271 -8z m375 -44 c41 -45
166 -201 319 -395 23 -29 44 -52 49 -53 4 0 7 113 7 250 l0 250 199 0 198 0
-51 -101 -51 -101 0 -564 c0 -557 0 -564 -20 -564 -58 2 -94 43 -410 468 -49
67 -96 121 -103 122 -10 0 -12 -34 -10 -162 3 -151 6 -170 36 -263 17 -55 32
-104 32 -109 0 -5 -43 -6 -97 -2 -54 3 -164 7 -245 8 -82 1 -148 3 -148 5 0 1
32 50 70 109 l70 106 0 389 c0 442 9 387 -95 559 -30 50 -55 93 -55 95 0 3 58
5 129 5 l129 0 47 -52z m-4202 -732 c18 -13 55 -31 82 -39 49 -14 49 -15 20
-22 -62 -14 -71 -18 -101 -40 -27 -21 -62 -77 -80 -130 -6 -19 -7 -18 -14 5
-22 76 -72 131 -145 159 l-47 18 48 12 c63 16 119 71 136 134 l12 46 28 -59
c16 -33 43 -71 61 -84z m6330 6 c16 -16 49 -37 75 -45 42 -14 45 -17 23 -23
-77 -23 -124 -68 -146 -139 -5 -16 -11 -10 -33 35 -26 54 -63 82 -137 105 -16
5 -11 10 29 25 61 24 90 51 113 106 l18 43 15 -39 c8 -21 28 -52 43 -68z
m-4555 -835 c158 -205 174 -222 178 -184 0 7 2 66 2 132 l2 120 55 -3 55 -4 0
-254 0 -254 -40 0 c-38 0 -43 4 -116 93 -169 205 -164 204 -164 32 l0 -125
-55 0 -55 0 0 258 0 257 46 -4 c43 -3 49 -7 92 -64z m1583 42 c80 -41 142
-142 141 -232 -1 -60 -30 -144 -63 -181 -120 -137 -367 -85 -419 87 -30 101
-6 209 61 275 82 81 186 100 280 51z m513 -42 c16 -39 41 -99 56 -132 41 -92
130 -318 127 -322 -2 -1 -27 0 -57 4 l-53 6 -25 59 -25 58 -99 0 -99 0 -26
-60 c-24 -57 -27 -60 -62 -61 -20 0 -46 -2 -58 -5 -13 -2 -23 0 -23 6 0 5 20
51 45 102 25 51 48 109 51 128 4 19 10 40 15 46 14 17 89 202 89 218 0 11 15
16 53 19 28 2 54 4 57 5 3 1 18 -31 34 -71z m-2506 47 c106 -44 177 -179 152
-288 -15 -69 -32 -97 -90 -149 -110 -99 -251 -82 -355 41 -16 19 -36 61 -45
95 -14 49 -22 63 -41 68 l-24 7 26 1 c21 1 28 8 38 44 25 82 76 145 146 178
50 23 142 25 193 3z m1484 -13 c44 -30 56 -49 64 -98 4 -31 1 -45 -20 -76 -21
-30 -23 -39 -11 -43 8 -3 24 -26 36 -51 25 -52 22 -97 -12 -144 -39 -55 -86
-69 -241 -69 l-137 0 -3 128 -3 127 -122 -4 c-86 -2 -123 0 -123 8 0 7 40 11
125 11 l125 0 0 121 0 120 143 -3 c133 -3 146 -5 179 -27z m1609 14 c53 -19
75 -39 101 -89 14 -27 19 -53 16 -87 l-3 -49 83 0 82 0 0 120 0 120 118 0
c102 0 124 -3 167 -24 74 -34 144 -128 145 -193 0 -21 5 -23 58 -25 l57 -2
-57 -3 c-45 -3 -58 -8 -58 -20 0 -48 -37 -130 -76 -169 -58 -55 -120 -74 -249
-74 l-103 0 -6 38 c-4 20 -5 73 -4 117 1 45 -1 86 -5 91 -3 6 -39 9 -83 8 -74
-2 -78 -3 -109 -37 -17 -19 -37 -36 -44 -38 -9 -3 5 -33 43 -92 l57 -88 -62 3
-63 3 -44 73 -45 72 -48 0 -49 0 0 -75 0 -75 -55 0 -55 0 0 125 c0 123 0 125
-22 126 -195 8 -239 19 -80 19 l102 0 0 113 c0 63 3 117 7 120 13 14 240 7
284 -8z m-2334 -231 c-3 -3 -12 -4 -19 -1 -8 3 -5 6 6 6 11 1 17 -2 13 -5z
m139 -2 c-6 -11 -111 -10 -122 1 -4 4 23 7 60 7 37 0 65 -4 62 -8z m141 -578
c3 -9 0 -20 -8 -25 -18 -11 -770 -11 -789 1 -11 7 -11 11 -1 24 12 14 61 16
403 16 347 0 389 -2 395 -16z m2180 1 c3 -9 3 -18 0 -21 -2 -3 -175 -6 -383
-7 l-379 -2 -3 23 -3 22 381 0 c334 0 381 -2 387 -15z m-1509 -76 c17 -7 37
-6 61 3 20 6 77 12 126 12 79 0 96 -3 137 -26 39 -22 59 -26 120 -25 81 1 132
-19 180 -70 61 -64 73 -145 33 -225 l-25 -50 26 -47 c44 -77 67 -143 53 -152
-9 -5 -9 -22 1 -72 11 -52 11 -77 1 -128 -15 -76 -43 -133 -74 -154 -15 -9
-28 -33 -36 -66 -9 -35 -26 -65 -52 -93 -22 -22 -39 -44 -39 -47 0 -4 -21 -24
-46 -45 -45 -36 -47 -37 -61 -18 -15 21 -13 23 -59 -53 -28 -47 -35 -51 -54
-28 -18 22 -28 19 -84 -23 -28 -21 -79 -55 -113 -76 l-62 -38 -48 27 c-26 16
-80 52 -120 81 -78 59 -88 62 -114 38 -16 -14 -19 -12 -45 35 -26 46 -30 49
-45 35 -22 -20 -34 -12 -121 82 -53 57 -70 83 -83 128 -13 43 -23 59 -41 67
-44 16 -69 89 -69 199 0 52 3 107 8 123 6 21 4 27 -8 27 -8 0 -15 2 -15 5 0 3
22 49 48 103 l49 97 -24 34 c-18 26 -23 47 -23 93 0 67 14 99 62 144 55 52 92
66 167 63 52 -2 76 2 116 21 28 13 66 27 85 31 40 9 153 1 188 -12z m1114
-326 c14 -13 42 -30 64 -38 l38 -13 -39 -16 c-51 -22 -74 -43 -92 -85 l-15
-34 -18 40 c-18 41 -71 83 -106 83 -12 1 -6 6 16 16 48 21 87 60 102 103 l12
36 7 -34 c4 -18 18 -44 31 -58z m-2093 0 c11 -12 36 -27 56 -34 19 -7 35 -15
35 -19 -1 -3 -23 -15 -50 -28 -43 -20 -51 -30 -69 -75 -15 -38 -20 -45 -20
-27 -1 43 -46 98 -93 112 l-41 12 39 17 c46 19 94 65 94 89 0 30 14 32 22 3 4
-16 16 -38 27 -50z"/>
<path d="M5581 7283 c-34 -69 -79 -206 -86 -261 l-6 -47 37 70 c39 74 87 199
97 253 10 49 -15 40 -42 -15z"/>
<path d="M5804 6935 c-44 -30 -87 -173 -65 -214 11 -20 13 -20 41 -6 17 9 39
33 50 55 26 50 49 138 42 162 -5 22 -40 24 -68 3z"/>
<path d="M2712 5558 l3 -93 83 -3 83 -3 -3 93 -3 93 -83 3 -83 3 3 -93z"/>
<path d="M2743 5122 l-33 -3 0 -115 0 -114 34 0 c18 0 54 3 80 6 l46 7 0 108
c0 106 -1 109 -22 110 -60 4 -75 4 -105 1z"/>
<path d="M3782 5503 l3 -88 93 -3 92 -3 0 91 0 90 -95 0 -96 0 3 -87z"/>
<path d="M5220 4262 c-20 -9 -44 -34 -56 -56 -19 -34 -22 -55 -15 -113 0 -7
15 -28 32 -47 57 -65 144 -66 207 -3 31 31 35 42 35 86 1 58 -19 91 -73 129
-40 26 -83 28 -130 4z"/>
<path d="M5807 4183 c-3 -5 -8 -23 -12 -40 l-7 -33 41 0 41 0 -20 40 c-19 38
-34 49 -43 33z"/>
<path d="M3244 4260 c-134 -67 -82 -260 70 -260 39 0 52 6 83 34 33 30 37 39
41 95 4 62 4 62 -37 101 -25 24 -52 40 -66 40 -13 0 -29 2 -37 5 -7 3 -31 -4
-54 -15z"/>
<path d="M4670 4235 l0 -46 78 3 c76 3 77 3 80 31 5 46 -12 57 -89 57 l-69 0
0 -45z"/>
<path d="M4672 4053 l3 -58 54 -3 c30 -2 65 -1 76 2 40 10 55 86 21 108 -6 4
-44 8 -84 8 l-73 0 3 -57z"/>
<path d="M6312 4219 l3 -74 77 0 c48 1 82 6 92 14 23 19 20 66 -7 97 -20 23
-33 27 -95 32 l-73 5 3 -74z"/>
<path d="M6876 4272 c-3 -4 -5 -67 -5 -140 l0 -132 60 0 c78 0 116 20 139 73
34 79 10 153 -61 189 -35 18 -124 25 -133 10z"/>
<path d="M4915 3453 c-38 -9 -115 -45 -115 -54 0 -4 -29 -6 -64 -2 -83 7 -104
1 -149 -43 -64 -64 -68 -154 -11 -211 l25 -25 -26 -38 c-33 -48 -68 -137 -54
-142 6 -2 3 -22 -7 -51 -35 -104 -2 -287 53 -295 17 -3 24 -12 29 -40 11 -59
34 -111 48 -106 7 3 18 -7 24 -22 7 -14 24 -41 39 -60 l26 -35 25 23 c24 22
25 22 36 4 31 -53 79 -96 108 -96 36 0 47 -6 144 -75 42 -30 84 -55 94 -55 10
0 66 34 125 76 95 67 111 75 128 65 17 -11 23 -8 48 21 16 18 37 45 46 61 21
33 24 33 44 1 l16 -26 44 60 c24 34 49 61 56 61 6 1 17 25 24 55 13 62 16 67
44 82 11 6 30 35 43 65 19 45 22 67 18 134 -2 44 -11 97 -20 117 -20 46 -20
48 -1 48 12 0 10 10 -11 53 -14 28 -37 66 -50 83 l-23 32 20 18 c52 47 62 111
29 179 -32 65 -113 101 -189 84 -35 -8 -46 -5 -89 22 -61 38 -166 49 -250 26
-45 -12 -61 -12 -110 -1 -56 13 -128 16 -167 7z m168 -73 c51 -19 56 -19 92
-4 21 8 68 18 104 21 59 5 75 2 144 -27 65 -27 83 -31 103 -21 32 14 78 4 104
-24 l22 -23 -42 5 c-32 5 -47 1 -70 -15 -28 -21 -29 -21 -52 -3 -13 10 -41 24
-63 30 -34 9 -46 7 -92 -14 -59 -27 -68 -50 -25 -66 26 -10 23 -12 -52 -34
-85 -25 -106 -42 -106 -87 0 -15 -4 -28 -10 -28 -5 0 -10 15 -10 34 0 41 -18
62 -79 88 -51 22 -171 37 -171 21 0 -6 17 -13 39 -17 48 -7 128 -74 118 -99
-10 -27 -52 -20 -97 18 -49 41 -57 42 -111 15 -37 -19 -45 -40 -14 -40 7 0 16
-19 22 -47 l9 -48 47 2 c26 2 47 1 47 -2 0 -2 -21 -24 -46 -47 -57 -53 -74
-85 -74 -143 0 -55 -16 -57 -42 -6 -9 18 -19 36 -23 39 -15 14 8 -93 30 -142
12 -28 28 -72 34 -98 6 -26 33 -87 61 -135 27 -48 50 -91 50 -95 0 -32 -137
93 -162 147 -18 40 -25 30 -20 -30 6 -69 -8 -71 -49 -7 -32 50 -53 113 -64
186 -8 51 -25 62 -25 17 0 -42 -15 -46 -31 -8 -19 45 -16 171 6 227 9 25 25
68 35 96 29 84 100 205 127 217 l23 10 -26 28 c-47 49 -111 50 -133 2 -10 -23
-9 -30 8 -54 34 -46 24 -81 -12 -41 -41 45 -27 130 27 163 38 23 63 24 115 3
38 -15 40 -15 80 12 72 47 167 56 254 24z m317 -176 c22 -9 40 -20 40 -24 0
-5 3 -16 7 -25 6 -16 5 -16 -19 -1 -43 28 -129 -9 -142 -60 -5 -20 -11 -23
-34 -18 -26 6 -52 29 -52 45 0 20 50 61 95 78 63 24 58 24 105 5z m-483 -120
c8 -21 -13 -42 -28 -27 -13 13 -5 43 11 43 6 0 13 -7 17 -16z m481 -17 c3 -14
-1 -18 -20 -15 -12 2 -24 11 -26 21 -3 14 1 18 20 15 12 -2 24 -11 26 -21z
m-274 -27 c-72 -8 -114 -23 -114 -41 0 -6 7 -6 19 1 11 5 53 10 93 10 79 0
126 -19 148 -61 13 -23 8 -95 -7 -109 -4 -5 -31 -6 -60 -3 -47 5 -51 7 -42 24
5 10 24 22 42 27 40 10 49 48 17 77 -28 25 -137 26 -175 1 -35 -23 -32 -69 5
-74 24 -3 50 -26 50 -44 0 -4 -11 -8 -24 -8 -37 0 -86 -20 -96 -40 -6 -10 -10
-37 -10 -59 0 -23 -4 -41 -8 -41 -5 0 -21 24 -35 54 -21 42 -27 70 -27 118 0
80 22 118 87 152 40 21 61 25 128 24 l80 -1 -71 -7z m273 -41 c34 -21 53 -63
52 -113 0 -17 -3 -24 -5 -16 -20 59 -42 92 -80 120 -24 17 -44 34 -44 36 0 9
43 -7 77 -27z m-177 -213 c33 -13 35 -15 32 -56 -4 -70 -19 -81 -27 -22 -7 56
-18 70 -40 52 -10 -8 -16 -7 -23 6 -7 12 -11 13 -17 5 -5 -9 -10 -9 -22 1 -12
10 -17 9 -24 -5 -13 -22 -29 -22 -29 -1 0 14 -3 14 -15 4 -8 -7 -15 -27 -15
-44 0 -17 -4 -37 -9 -45 -7 -11 -11 -4 -17 25 -10 52 -8 75 8 85 20 13 159 9
198 -5z m-58 -137 l38 -10 -4 -56 c-5 -61 -14 -73 -63 -73 -49 0 -63 21 -63
97 l0 65 28 -6 c15 -4 44 -12 64 -17z m-134 -229 c18 -24 48 -43 85 -54 14 -5
17 -18 17 -88 l-1 -83 -57 61 c-76 80 -103 154 -94 264 l6 75 13 -75 c7 -41
21 -86 31 -100z m206 95 c-9 -50 -45 -75 -106 -75 -39 0 -54 5 -73 25 -14 13
-25 32 -25 42 0 10 -3 28 -6 41 -4 12 -2 22 4 22 5 0 13 -11 16 -25 11 -44 41
-65 91 -65 55 0 85 25 85 73 1 26 2 29 11 15 5 -10 7 -34 3 -53z"/>
<path d="M8740 5060 c0 -32 -31 -102 -60 -135 -32 -37 -178 -176 -330 -315
-99 -90 -263 -245 -377 -357 -25 -24 -33 -41 -33 -68 0 -19 3 -35 6 -35 3 0
42 35 87 77 45 43 150 141 232 218 83 78 225 212 317 299 173 163 208 209 224
299 l6 37 -36 0 c-29 0 -36 -4 -36 -20z"/>
<path d="M7820 4108 c-58 -55 -188 -180 -290 -276 -102 -97 -243 -232 -315
-301 -116 -112 -416 -399 -670 -641 -184 -175 -334 -320 -515 -495 -102 -100
-234 -228 -295 -285 -60 -58 -185 -178 -277 -268 -167 -162 -236 -212 -295
-212 -19 0 -23 -6 -23 -30 0 -27 3 -30 33 -30 39 0 108 30 151 66 17 14 87 81
156 147 69 67 168 163 220 212 52 50 221 212 375 360 154 149 431 415 615 590
184 176 422 406 530 510 107 105 311 300 453 434 249 237 257 245 257 282 0
22 -1 39 -2 39 -2 0 -50 -46 -108 -102z"/>
<path d="M2340 4157 c0 -25 4 -47 9 -49 10 -3 130 -115 411 -383 137 -130 488
-464 605 -575 113 -108 233 -221 350 -330 106 -99 754 -726 1059 -1025 140
-137 199 -185 252 -205 30 -11 66 -20 79 -20 21 0 25 5 25 29 0 26 -4 29 -42
35 -24 4 -64 21 -89 39 -26 18 -176 158 -335 313 -559 543 -1012 977 -1239
1189 -77 71 -205 193 -285 271 -140 136 -590 562 -731 692 l-69 64 0 -45z"/>
<path d="M2347 2613 c-8 -7 -10 -243 -3 -243 3 0 29 26 58 57 29 31 81 86 116
121 34 35 62 66 62 68 0 7 -226 4 -233 -3z"/>
<path d="M1925 1897 c-383 -386 -462 -469 -447 -475 4 -1 32 4 62 12 55 15 76
11 62 -10 -9 -14 -146 -56 -170 -52 -12 2 -72 -51 -172 -149 l-155 -153 608 0
607 0 1 88 c1 171 -2 1127 -5 1129 -1 1 -177 -174 -391 -390z"/>
<path d="M3000 840 c0 -5 4 -10 9 -10 6 0 13 5 16 10 3 6 -1 10 -9 10 -9 0
-16 -4 -16 -10z"/>
<path d="M2330 820 c0 -5 5 -10 11 -10 5 0 7 5 4 10 -3 6 -8 10 -11 10 -2 0
-4 -4 -4 -10z"/>
<path d="M7782 7757 c-72 -73 -132 -134 -132 -137 0 -3 61 -5 135 -5 l135 0 0
138 c0 75 -1 137 -3 137 -1 0 -62 -60 -135 -133z"/>
<path d="M2345 7763 c1 -65 2 -124 3 -130 2 -10 36 -13 137 -13 l134 0 -130
128 c-72 70 -134 128 -138 130 -4 1 -6 -51 -6 -115z"/>
<path d="M1080 7326 l0 -276 620 0 620 0 0 270 c0 209 -3 270 -12 270 -7 0
-286 3 -620 7 l-608 6 0 -277z"/>
<path d="M7707 2578 c25 -24 84 -81 129 -128 l84 -85 0 128 0 127 -130 0 -130
0 47 -42z"/>
<path d="M6605 830 c-3 -5 -1 -10 4 -10 6 0 11 5 11 10 0 6 -2 10 -4 10 -3 0
-8 -4 -11 -10z"/>
<path d="M7255 860 c-3 -5 -1 -10 4 -10 6 0 11 5 11 10 0 6 -2 10 -4 10 -3 0
-8 -4 -11 -10z"/>
<path d="M7920 825 c0 -9 5 -15 11 -13 6 2 11 8 11 13 0 5 -5 11 -11 13 -6 2
-11 -4 -11 -13z"/>
</g>
</svg>
